<svg xmlns="http://www.w3.org/2000/svg" id="Camada_2" data-name="Camada 2" viewBox="0 0 87.7 96.75"><defs><style>      .cls-1 {        fill: #fff;      }    </style></defs><g id="Camada_1-2" data-name="Camada 1"><g><path class="cls-1" d="M80.69,51.91c.03-.59.04-1.18.04-1.78,0-5.06-.94-9.91-2.64-14.37-.31-.8-1.42-.82-1.77-.03-.53,1.21-1.22,2.35-2.03,3.4,1.01,3.11,1.61,6.41,1.72,9.83,1.69.74,3.27,1.77,4.68,2.96Z"></path><path class="cls-1" d="M38.49,10.66c.08-.54-.35-.8-.61-.78-.87.05-1.96.13-2.7.23C14.88,12.72-.75,30.47.03,51.64c.34,9.2,3.79,17.63,9.33,24.28-.02-.16-.03-.33-.05-.49,0-.09-.04-.18-.08-.26-1.46-2.48-2.34-5.35-2.48-8.39-.06-1.23.06-2.44.31-3.6.03-.12.02-.24-.03-.35-1.51-3.95-2.35-8.23-2.35-12.71,0-17.16,12.18-31.52,28.35-34.9.32-.07,3.66-.55,3.99-.55.96,0,1.36-3.41,1.45-4.01Z"></path><path class="cls-1" d="M36.53,18.2c.62-.07,1.06-.63.98-1.24-.07-.62-.64-1.06-1.24-.98-4.85.56-9.38,2.1-13.4,4.39.28.69.62,1.37.99,2.02,3.79-2.19,8.07-3.66,12.66-4.19Z"></path><path class="cls-1" d="M8.71,59.9c-.98-3.45-1.42-7.11-1.21-10.88.22-3.91,1.13-7.64,2.59-11.07.01-.1.03-.21.07-.32.78-2.3,1.39-4.78,1.64-7.27-3.78,5.27-6.14,11.63-6.54,18.53-.22,3.92.22,7.73,1.2,11.32.66-.19,1.47-.27,2.24-.31Z"></path><path class="cls-1" d="M37.66,20.22c-.07.41-.15.81-.22,1.22-.18.93-.36,1.89-.46,2.84-.12,1.02-.14,2.06-.16,3.07v.65c-.08,2.75.36,5.48,1.29,8.1.83,2.34,1.99,3.79,3.76,4.68-.27,1.67-1.14,8.2-1.65,11.83-.17-.54-.34-1.09-.51-1.63-1.04-3.33-2.03-6.66-3.83-9.69-1.31-2.21-2.67-4.37-4.35-6.31-1.73-1.99-3.58-3.88-5.37-5.83-.52-.57-.99-1.18-1.49-1.78-.87,2.46-1.82,4.87-2.27,7.46-.09.52-.21,1.11-.65,1.38-.53.32-1.21.03-1.71-.33-1.06-.77-1.87-1.82-2.85-2.68-1-.87-2.24-1.35-3.33-2.08-.19,1.69-.35,3.38-.59,5.06-.22,1.58-.68,3.15-.77,4.74-.12,2.33-.09,4.67.03,7.01.11,2.23.44,4.44,1.11,6.58.62,2.01,1.25,4.01,1.88,6.02.27,0,.58.06.98.18,1.96.6,4.01,1.43,5.9,2.23.38.16.81.33,1.03.61.27.34.34.84.51,1.23.59,1.33,1.02,2.36,1.22,3.88.2,1.52.42,3.33.78,4.93.09.39.25.95.36,1.35.37-1.8.4-3.77.1-5.56-.17-1-.46-2.09-.67-2.98-.21-.88.1-1.31.79-1.05.69.26,1.18.56,1.74.85,2.46,1.29,4.93,2.34,7.54,3.17.68.22,1.35.4,2.01.58.07.02.15.04.22.06.07.02.15.04.22.06.35.1.71.2,1.06.31.07.02.14.05.22.07.07.02.14.05.22.07.26.09.53.17.79.27,1.12.42,1.88,1.22,2.3,2.36.42,1.14.71,2.32,1.1,3.49.29.87.48,1.83.77,2.72.05.16.24.37.35.51.19-.39.28-.9.2-1.28-.08-.39-.14-.69-.19-1.02-.24-1.66-.83-3.19-1.43-4.7-.1-.24-.19-.57-.13-.74.17-.44.7-.5,1.02-.38s.5.13.74.22c.37.14.75.27,1.13.39-1.62-5.18-3.23-10.36-4.85-15.54.38-2.92.68-5.2.76-5.65.09-.56.18-1.12.27-1.68.06-.39.12-.77.18-1.16.13-.83.27-1.66.41-2.48l.5-3.86c.04-.24.08-.47.12-.71l.04-.2.2-.04c.24-.05.46-.09.67-.15l.15-.04c.29-.08.59-.15.87-.29,1.09-.55,2.06-1.34,2.96-2.42,1.61-1.93,2.87-4.33,3.97-7.54.61-1.79,1.09-3.75,1.47-6.01.12-.71.2-1.44.28-2.14.04-.33.08-.67.12-1l.15-1.17c.1-.74.19-1.48.28-2.23.05-.45.09-.92.12-1.45.07-1.44.14-2.88.2-4.33.02-.53-.17-.91-.6-1.22l-.99-.19c-.73-.13-1.49-.26-2.26-.39-.42-.07-.84-.12-1.26-.18-.37-.05-.74-.1-1.11-.16-.7-.11-1.39-.22-2.09-.34l-1.95-.32c-.39-.06-.78-.12-1.16-.19-.3-.05-.6-.11-.9-.16-.49-.09-.98-.18-1.47-.26-.64-.09-1.02.14-1.25.76-.08.21-.14.43-.2.65-.06.2-.11.4-.18.59-.5,1.41-.82,2.88-1.13,4.31-.12.54-.23,1.07-.36,1.61-.04.17-.08.35-.13.52-.08.32-.16.63-.22.95-.09.45-.17.91-.24,1.37l-.1.59ZM40.81,14.97c.07-.26.13-.52.19-.78.26-1.06.52-2.16.94-3.2l11.31,1.83-.28,4.03-12.17-1.87ZM38.92,26.32l.04-.49c.08-1.09.16-2.08.28-3.06.09-.7.22-1.4.36-2.09l.08-.39c.18-.93.37-1.85.56-2.77l.06-.31c.01-.07.04-.15.07-.23h0s12.34,1.92,12.34,1.92c0,.14-.02.27-.03.4-.03.42-.05.82-.1,1.21-.15,1.15-.32,2.3-.48,3.32l-.05.35c-.08.55-.17,1.11-.29,1.65-.25,1.06-.54,2.16-.86,3.3-.62,2.17-1.5,4.19-2.61,6-.8,1.31-1.58,2.25-2.46,2.98-.56.46-1.08.73-1.65.85-1.18.25-2.13-.18-2.99-1.35-.89-1.2-1.31-2.6-1.71-4.06-.4-1.46-.48-2.99-.57-4.47-.02-.29-.03-.58-.05-.88-.04-.61.01-1.25.07-1.87Z"></path><path class="cls-1" d="M45.92,35.96s.07,0,.1,0c.23,0,.55-.11.9-.54.4-.5.72-.99.96-1.47.66-1.31,1.39-2.87,1.83-4.57.11-.44.23-.88.35-1.32.25-.94.51-1.91.72-2.87.16-.75.27-1.51.37-2.24.05-.33.09-.66.14-.99v-.07s-.09-.19-.09-.19c-.05-.09-.09-.17-.14-.24-.28-.37-.66-.5-1.08-.39-.43.11-.69.42-.74.87-.1.84-.21,1.68-.33,2.51-.04.23-.09.46-.15.69-.04.17-.08.33-.12.5-.4,2-1.01,3.96-1.82,5.84-.03.07-.06.14-.09.2-.07.15-.14.29-.19.45-.23.69-.61,1.28-1.11,1.96-.13.18-.23.38-.32.56-.03.07-.06.13-.1.19l-.05.09.04.1c.3.7.66.89.92.93Z"></path><path class="cls-1" d="M56.36,15.34c.03.2.08.4.13.6.04.18.08.35.11.53.21,1.32.6,2.6.97,3.85.14.46.28.93.41,1.39.04.15.08.3.12.44.07.28.15.57.24.85.12.38.25.76.39,1.13l.19.54c.12.35.24.71.35,1.06.26.79.53,1.61.85,2.39.35.85.79,1.68,1.21,2.48l.26.49c1.13,2.17,2.64,4.1,4.49,5.75,1.54,1.37,3.03,2.02,4.67,2.03h.05s.05-.02.05-.02c.05-.02.1-.04.15-.06.69,1.73,1.22,3.5,1.6,5.3.42-.24.83-.49,1.26-.72.26-.15.52-.29.78-.42-.39-1.69-.9-3.35-1.55-4.98,0-.02-.02-.02-.03-.04.07-.06.15-.12.21-.19l.1-.1c.19-.18.39-.37.55-.6.62-.9,1.03-1.93,1.27-3.16.43-2.2.38-4.6-.14-7.57-.29-1.65-.76-3.38-1.43-5.31-.21-.6-.46-1.2-.69-1.78-.11-.28-.23-.56-.34-.84l-.4-1.01c-.24-.61-.48-1.21-.72-1.82-.15-.38-.32-.76-.53-1.18-.56-1.15-1.13-2.3-1.7-3.45-.21-.43-.53-.65-1.01-.7h-.05s-.8.27-.8.27c-.62.21-1.28.44-1.93.67-.35.13-.7.26-1.05.4-.31.12-.62.24-.94.36-.58.21-1.17.42-1.75.62l-1.66.59c-.33.12-.66.24-.99.36-.26.09-.51.17-.77.26-.42.14-.84.28-1.25.43-.55.21-.75.56-.66,1.15ZM59.67,20.98l10.38-3.78c.05.11.1.21.15.31.16.33.31.65.43.97.36.92.7,1.84,1.05,2.79l.11.29c.17.46.35.93.48,1.41.26.93.5,1.89.74,2.93.45,1.95.63,3.9.54,5.78-.06,1.36-.27,2.43-.64,3.37-.23.59-.52,1.02-.91,1.36-.8.69-1.72.76-2.88.23-1.2-.55-2.13-1.46-3.06-2.42-.93-.96-1.65-2.11-2.35-3.23-.14-.22-.28-.44-.42-.66-.29-.46-.53-.98-.75-1.48l-.18-.4c-.39-.84-.76-1.67-1.09-2.5-.23-.58-.43-1.19-.62-1.77l-.11-.34c-.24-.75-.48-1.49-.71-2.24l-.13-.42c-.02-.06-.03-.12-.04-.19ZM58.34,15.66l9.54-3.41,1.49,3.21-10.21,3.74c-.06-.22-.12-.44-.18-.66-.25-.93-.51-1.88-.64-2.87Z"></path><path class="cls-1" d="M62.06,24.34c.23.62.47,1.27.76,1.89.37.8.78,1.59,1.18,2.35.19.36.37.71.56,1.07.71,1.39,1.65,2.6,2.48,3.6.3.37.68.73,1.12,1.09.3.24.55.32.75.32.1,0,.18-.02.25-.04.22-.08.51-.33.63-1l.02-.11-.07-.08s-.08-.1-.12-.15c-.11-.14-.23-.29-.38-.42-.57-.49-1.01-.93-1.34-1.47-.07-.12-.16-.24-.25-.36l-.12-.16c-1.07-1.46-1.98-3.04-2.72-4.7-.06-.14-.13-.27-.2-.41-.09-.19-.19-.38-.26-.57-.27-.7-.53-1.4-.78-2.11-.14-.4-.43-.61-.84-.63-.39-.02-.71.19-.88.56-.03.07-.06.15-.08.25l-.05.19.03.07c.11.27.21.54.31.82Z"></path><path class="cls-1" d="M13.85,31.03l-.03.07s.02.01.03.02c0,0,0-.02,0-.03,0,0,0-.06,0-.06Z"></path><path class="cls-1" d="M15.8,14.03c1.2-.35,2.24-.42,3.42-.85.59-.22-.52-3.23-.51-3.79-.13-.34-.35-.5-.59-.58-.39-.13-.81-.07-1.19.08-1.55.62-3.06,1.18-4.63,1.5-.5.1-1,.26-1.48.45-.56.22-1.13.42-1.7.62-1.12.39-.4,2.63.4,3.88.15.24.44.36.72.29,1.84-.48,3.81-1.08,5.55-1.6Z"></path><path class="cls-1" d="M18.79,13.18c-2.23.67-6.35,1.48-8.54,2.14,1.28.43,1.59,1.79,1.71,2.14,1.18,3.43,1.72,5.61,1.83,9.24.01.36.06.82.28,1.06.43.46,4.56,6.19,5.82,5.41,2.04-1.26,1.83-5.12,2.4-7.48.05-.2.35-.94.27-1.11-.96-1.96-1.88-3.74-2.7-5.57-.36-.8-.57-1.68-.74-2.54-.22-1.19-.68-1.97-.33-3.28Z"></path><path class="cls-1" d="M56.25,86.16c.02.27,0,.49-.2.72-1.3,1.45-2.64,2.85-3.99,4.24-1.08,1.12-2.33,1.78-3.76,2.38-2.07.87-4.09,1.32-6.34,1.65-3.88.56-7.5-.15-11.12-1.65-.05-.02-.14-.15-.12-.21.01-.06.12-.21.18-.24.06-.03.21.02.28.05,2.77,1.1,5.71,1.83,8.69,1.71,2.47-.1,4.78-.61,7.09-1.39,1.75-.59,3.26-1.36,4.64-2.63s2.67-2.83,3.94-4.25c.11-.12.24-.23.36-.34-1.32.15-2.59.04-3.78-.43-1.01,1.96-2.32,3.55-3.86,5.15-.26.27-.64.45-.95.67-.13-.19-.27-.38-.4-.57.79-.84,1.54-1.61,2.29-2.5.75-.9,1.55-1.67,1.81-2.87-.79.18-1.58.3-2.38.4-.67,1.41-1.34,2.72-2.42,3.87-1.08,1.16-2.37,2.12-3.59,3.14-.23-.25-.45-.5-.67-.74,1.09-.9,2.24-1.7,3.24-2.71,1.01-1.01,1.71-2.19,2.31-3.48-1.1.07-2.2.16-3.31.22-.33.35-.65.79-1.01,1.1-1.23,1.07-2.5,2.14-3.77,3.11-.69.53-1.57.95-2.25,1.32-.68.38-.79.1-1.33-.25.27-.24.48-.5.78-.68,1.44-.87,2.88-1.65,4.22-2.68.79-.61,1.5-1.35,2.24-2.02-.61-.08-1.22-.15-1.83-.23-.4-.05-.81-.1-1.21-.15-.05.05-.11.1-.16.16-.87.85-1.81,1.72-2.75,2.43-1,.75-1.89,1.31-2.94,1.97-.31.2-.77.35-1.04-.04-.15-.21.05-.46.29-.61.76-.49,1.57-.99,2.34-1.55.93-.68,1.87-1.38,2.65-2.24.1-.11.21-.21.31-.33-.71-.06-1.42-.25-2.12-.36-.02,0-.01.04-.02.03,0,0,.02-.03,0-.04-.02,0-.04-.01-.06-.02-.99-.3-2.01-.56-2.99-.94-.42.22-.93.49-1.39.73-.19.1-.38.2-.54.28-.56.29-.98.5-1.49.71s-1.13.41-1.59.54c-.46.13-.65-.03-.86-.33s.04-.52.25-.62c.21-.1.4-.14.57-.2.67-.24,1.55-.49,2.13-.75.02-.01.04-.02.06-.03.53-.24.76-.45,1.24-.71-.77-.38-1.52-.76-2.28-1.14-.69.28-1.38.54-2.07.8-1.31.5-2.63.98-3.98,1.42-.14-.31-.28-.61-.42-.91,1-.35,1.99-.71,2.98-1.1.71-.28,1.42-.55,2.13-.85-.69-.47-1.38-.94-2.07-1.41-.47.21-.89.47-1.39.64-.39.13-.79.26-1.18.38-.45.14-.89.29-1.34.42-.54.16-1.07.33-1.62.49-.23.07-.62.02-.87,0,.01-.25.03-.51.05-.76.71-.24,1.42-.48,2.14-.73.14-.05.28-.09.42-.14.86-.3,1.71-.61,2.55-.96-.73-.43-1.46-.87-2.18-1.31-.48.12-.95.24-1.43.37-.44.12-.88.24-1.32.35-.93.23-1.87.43-2.83.49-.08-.3-.16-.59-.23-.89.58-.17,1.22-.37,1.82-.53.11-.03.22-.07.33-.09.67-.16,1.2-.21,1.84-.37.02,0,.04-.02.06-.03.17-.06.33-.18.49-.28,0,0,.02-.01.03-.02-.28-.25-.56-.5-.85-.74-.24-.21-.47-.41-.71-.62-.09,0-.18.02-.27.02-.95.08-1.85.36-2.77.58-.58.15-1.18.27-1.79.29-.05-.3-.1-.59-.16-.89.33-.1.66-.2.99-.3.83-.25,1.65-.5,2.48-.75.06-.02.11-.03.17-.05-.47-.37-.94-.74-1.42-1.12-.31-.25-.63-.5-.94-.75-.33.06-.75.13-1.07.18-.51.08-.92.16-1.38.22-.25.04-.5.07-.79.11-.39.05-.83-.15-.99-.64.31-.2.64-.32.99-.41.72-.18,1.49-.22,2.21-.5-.81-.69-1.6-1.41-2.4-2.12-.62,0-1.22-.03-1.81-.1-.74-.08-1.47-.2-2.23-.43-.17-.05-.41-.53-.51-.7.67-.18,1.32-.13,1.98-.08.4.03.81.06,1.22.04-.3-.32-.64-.53-.99-.82-.34-.29-.67-.67-.99-.99.13-.24.27-.47.41-.7.44.42.9.87,1.35,1.25.06.05.1-.11.15-.1-.17-.69-.32-1.37-.47-2.06-.05-.21-.1-.41-.14-.62.6.03.75,0,.9.66.18.76.39,1.58.6,2.38.06.25.13.5.19.74.25.23.49.45.73.68.59.54,1.17,1.08,1.76,1.62-.06-.46-.1-.96-.19-1.41-.09-.45-.27-1.1-.36-1.46-.09-.37-.14-.75.22-.8.36-.05.51.38.59.72.24,1.02.42,2.13.66,3.18.06.28.15.61.36.83.49.51,1.07.94,1.6,1.4-.26-1.56-.52-3.19-.73-4.74-.11-.82-.29-1.64-.39-2.39-.08-.6.07-.72.42-.63.09.02.19.06.31.1.19.82.35,1.65.49,2.47.34,1.93.58,3.88.73,5.84.5.41.99.82,1.48,1.23.25.21.51.42.76.63.04-2.53-.55-5-.49-7.52.23.02.45.05.68.07.14,1.4.33,2.78.5,4.19.17,1.4.26,2.83.39,4.24.74.59,1.52,1.07,2.33,1.55-.2-.71-.42-1.39-.51-2.12s-.41-1.33-.18-2.07c.23.11.47.18.7.28.3,1.51.63,2.99,1.06,4.48,1.17.71,2.32,1.44,3.48,2.17.03.02.06.02.1,0,.04-.02.1-.11.13-.14-.5-1.46-1.24-2.83-1.39-4.38.09.02.38.08.42.16.76,1.7,1.46,3.28,1.89,5.08.35.14.71.27,1.07.4.61.23,1.22.46,1.83.69,0-.07-.02-.14-.03-.22-.03-.22-.06-.45-.12-.62-.39-1.32-.73-2.65-1.16-3.93-.31-.94-.65-1.9-.93-2.8-.09-.28-.11-.62.18-.66.29-.04.46.12.6.49.07.18.14.4.22.64.02.07.05.15.07.22.05.15.1.29.15.44.02.05.04.11.06.16.02.07.05.13.07.2.03.09.07.19.1.28.03.09.06.17.09.26.64,1.8,1.21,3.65,1.64,5.53.04.16.08.32.11.47,1.11.27,2.22.53,3.32.82-.05-.21-.09-.5-.17-.7-.02-.04-.03-.08-.05-.12-.71-1.74-1.44-3.49-2.27-5.15-.07-.13-.13-.27-.19-.41-.04-.08-.07-.16-.11-.24-.04-.08-.07-.16-.1-.24-.16-.38-.3-.75-.39-1.06,0-.03-.01-.06-.02-.09-.02-.09-.04-.17-.04-.23,0-.1.02-.17.07-.22.08-.08.22-.12.41-.18.05.08.09.16.14.25.05.08.09.16.14.24.05.08.09.16.14.24.23.4.44.81.64,1.22.04.08.08.16.12.25.04.08.08.16.11.25.29.62.57,1.25.85,1.9.5,1.18,1,2.37,1.52,3.56.14.31.27.63.42.94.02.03.03.07.05.1,1.41.18,2.82.37,4.23.55-.28-.49-.58-1.04-.88-1.55-.02-.04-.04-.07-.06-.11-.12-.19-.23-.37-.35-.54-.91-1.33-1.81-2.58-2.58-3.96-.06-.11-.15-.31-.12-.4,0,0,0-.01,0-.02.02-.04.1-.11.18-.18.1-.07.21-.14.28-.12.09.02.22.11.34.22.08.08.16.16.21.23,0,.01.02.02.03.04,1.04,1.44,2.04,2.91,2.91,4.46.06.1.12.2.18.31.3.55.59,1.12.86,1.69,1.44.02,2.9-.12,4.34-.23.05,0,.1,0,.16-.01,0,0,0-.02,0-.02,0-.07.02-.22,0-.27-.37-.59-.74-1.19-1.11-1.78-.18-.29-.37-.58-.56-.87-.09-.14-.18-.29-.28-.43-.22-.33-.51-.75-.17-1.02.34-.27.65-.05.85.27.18.29.36.59.55.88.2.32.39.63.59.95.4.67.81,1.34,1.21,1.99.03.05.06.11.1.16.32-.05.64-.12.95-.19-.09-.06-.18-.12-.26-.19-.69-.53-1.26-1.15-1.71-1.85-.21-.32-.39-.65-.55-1-.12-.26-.23-.52-.32-.8-.66-1.93-.86-3.7-.47-5.57.02-.07.04-.14.06-.21-.25-.14-.5-.3-.73-.48.13-.31.36-.3.59-.2.03.01.05.02.08.03.07.04.14.07.2.11.1-.35.21-.69.33-1.03-.33-.14-.66-.27-1-.38-.7-.22-1.42-.4-2.12-.58.73,1.84,1.27,3.72,1.58,5.67.09.6,0,1.31-.21,1.79-.21.48-.37.67-.82.71-.45.04-.73-.16-.96-.55-.24-.41-.4-.85-.54-1.3-.03-.1-.07-.19-.09-.29-.1-.34-.18-.69-.27-1.04-.02-.09-.05-.19-.07-.28-.04-.18-.09-.35-.14-.53-.33-1.18-.65-2.4-1.04-3.57-.29-.86-.96-1.44-1.79-1.72-.2-.07-.39-.12-.58-.18-.07-.02-.14-.05-.22-.07-.07-.02-.15-.05-.22-.07-.36-.11-.71-.21-1.07-.31-.07-.02-.15-.04-.22-.06-.07-.02-.15-.04-.22-.06-.63-.18-1.25-.36-1.9-.56-2.61-.81-5.12-1.81-7.54-3.13-.5-.27-1.05-.52-1.56-.8.17,1.11.48,2.27.6,3.37.21,1.85.28,3.55-.03,5.4-.11.66-.51,1.08-1.25.9-.54-.77-.76-1.6-.95-2.52-.28-1.4-.42-2.72-.62-4.15-.26-1.82-.85-3.53-1.68-5.19-2.27-1.1-4.54-2-6.95-2.69-.14-.04-.28-.09-.43-.13-.29.71-.13,1.41-.09,2.15.05.74.19,1.55.28,2.25.05.4.02.94-.42.95-.44.01-.76-.56-.96-.95-.37-.71-.78-1.87-1.1-2.51s-.58-1.12-.89-1.6c-.31-.48-.72-.76-1.2-.71-.36.04-1.12.07-1.95.13-.8.06-1.67.14-2.27.26-.43.08-.73.19-.8.32-.41.82-.09,1.71-.17,2.73-.06.81.25,2.35.42,3.23.45,2.4,1.2,4.66,2.34,6.89.68,1.34,1.54,2.65,2.51,3.87,3.22,4.01,6.59,7.87,10.55,11.08.7.57,1.25.76,1.98.56,1.18-.32,2.07-.81,3.15-1.26,1.49-.62,2.83-1.21,4.4-1.76.61-.21,1.28-.28,1.83.25.05.59-.27,1.03-.67,1.39-1.12,1.01-2.25,1.78-3.46,2.69-.52.4-1.16.73-1.46,1.39.64.51,1.3,1.24,2.04,1.6,4.09,2,7.82,2.87,12.31,2.28,2.34-.3,4.26-.96,6.36-1.94,2.1-.97,3.92-2.25,5.63-3.82,1.01-.93,1.93-1.92,2.75-3,.26-.35.5-.72.69-1.09.1-.19.2-.37.31-.54-.38-.08-.79-.08-1.24-.02ZM28.89,68.54c.49.27,1.38.63,1.78.65.05,0,.08,0,.1,0,0,0,.01,0,.02,0,.41.05.89.43,1.34.62,1.75.73,3.58,1.32,5.42,1.88.07.02.14.04.22.07s.14.04.22.07c.35.11.71.21,1.06.32.07.02.14.04.22.07.05.02.1.03.15.05.02,0,.04.02.07.02.48.15.99.39,1.47.59-.1.06-.03.42-.16.42-.23,0-.56-.14-.83-.23-.19-.06-.38-.13-.56-.2-.07-.03-.14-.05-.22-.08-.07-.03-.14-.05-.21-.07-.24-.09-.48-.18-.73-.24-.11-.03-.22-.06-.33-.09-.07-.02-.15-.04-.22-.06-.07-.02-.15-.04-.22-.06-.75-.24-1.45-.52-2.3-.78-1.13-.35-2.49-.73-3.63-1.22-.14-.06-.26-.19-.42-.24-.84-.31-1.58-.57-2.42-.99-.25-.12-.56-.34-.53-.72.19.08.53.14.71.24ZM17.16,63.17c1.68.54,3.32,1.09,5.01,1.72.22.08.58.47.77.64-.17.03-.48.13-.63.07-.8-.29-1.35-.55-2.18-.85s-1.85-.64-2.77-.93c-.24-.08-.57-.25-.49-.58.02-.08.2-.11.3-.07ZM21.77,87.39c-1.22-.91-2.56-1.47-3.64-2.56-2.6-2.61-4.84-5.65-7.03-8.62-.87-1.18-1.4-2.48-2.13-3.78-.19-.34-.32-.79.12-1.07,3.32,6.35,7.47,12.01,13.53,15.94-.19.44-.57.31-.86.09Z"></path><path class="cls-1" d="M78.98,72.5c-.7.05-1.24-.3-1.47-1.01.22-.91.68-1.59,1.52-2.02,1.16-.6,2.18-1.19,3.38-1.77,1.2-.58,2.56-1.06,3.83-1.59.67-.28,1.13-.75,1.47-1.4-.52-4.96-2.67-8.72-5.6-12.55-1.93-2.53-3.4-4.45-4.48-7.38-.22-.6-.68-.99-1.07-1.48-.6.05-1.2.31-1.73.6-.21.11-.41.23-.6.34-.54.34-.98.63-1.45.9-.08.05-.16.1-.25.14-2.32,1.25-4.74,2.44-7.01,3.67-1.2.65-1.31,1.1-.7,2.28.33.64.89,1.23,1.35,1.85,1.24,1.69,2.62,3.38,3.76,5.16.65,1.01,1.06,1.88.55,3.05-.71.03-1.31-.22-1.8-.7-2.3-2.19-4.1-4.39-5.46-7.27-.17-.37-.48-.85-.71-1.22-.38.53-.95,1.14-1.23,1.7-.58,1.16-1.19,2.24-1.84,3.31-.65,1.07-.37,1.97.03,3.08.48,1.32,1.34,2.53,2.21,3.62,1.07,1.34,2.17,2.69,3.05,4.14.26.44.56.9.66,1.33.1.43-.06.7-.38.9-.32.2-.98.18-1.27.01-.62-.37-1.2-.82-1.63-1.32-1.39-1.61-2.36-3.28-3.47-5.1-.66-1.08-1.4-2.33-2.12-3.41-.88.84-1.6,1.86-2.22,2.86-1.46,2.38-3,4.46-4.21,6.99-.47.98-.91,1.99-1.3,3.05-.09.26-.18.53-.27.8-.06.18-.12.37-.18.55-.05.17-.09.34-.13.51-.05.19-.09.39-.13.58-.1.52-.16,1.04-.17,1.56-.03,1.1.13,2.21.52,3.4.06.19.14.36.21.54.2.49.45.94.74,1.36.49.7,1.1,1.3,1.85,1.77.14.09.28.16.43.24.34.19.69.36,1.08.5.12.05.25.07.37.11.9.27,1.9.31,2.88.2.79-.09,1.47-.07,2.07.11.33.1.64.25.93.45.35.25.68.58,1,1.02.9,1.25,1.57,2.42,3.03,3.24,1.97,1.1,3.73,1.46,6.17.88,3-.71,6.03-2.2,8.69-4.06,1.6-1.12,2.97-2.46,4.17-4.1.76-1.04,1.64-2.17,2.32-3.29-.67.25-1.49.48-2.17.68-2.77.82-5.81,1.56-8.52,2.04-1.95.35-2.29.08-2.78-1.62.8-1.44,2.15-2,3.58-2.56,1.95-.76,3.79-1.06,5.81-1.42,1.42-.25,2.56-.51,4.01-.96,1.45-.45,2.45-1.42,2.75-3.06.21-1.17.31-2.5.38-3.7-2.15,1.12-4.27,2.22-6.54,3.08-.61.23-1.18.3-1.88.36ZM79.54,58.12c1.03-.84,2.31-.52,3.53-.44.63.64.62,1.33.18,2.02-.72,1.11-1.4,1.94-2.47,2.69-.92-.27-1.75-.62-2.04-1.61s0-2,.8-2.66ZM54.73,71.16c.1-.51.82-.62,1.32-.45.26.09.61.29.84.49.71.64,1.36,1.24,2.03,1.96.67.72.73,1.44.18,2.29-.6.21-1.17.41-1.78.61-.78-.24-1.85-.47-2.23-1.23-.61-1.23-.61-2.35-.35-3.67ZM81.79,74.74c-.26.16-.66.47-.93.56-1.85.58-3.55.66-5.44.44-1.63-.18-3.06-.42-4.67.05-1,.29-2.02.69-3.01,1.03-.89,1.07-1.93,2.01-2.91,3,1.55.36,2.56.96,3.78,2.02,1.95,1.69,3.87,2.4,6.51,2.29.16,0,.5.46.57.62-.7.09-1.69.33-2.36.26-2.02-.22-3.48-.87-4.94-2.16-.49-.43-.74-.78-1.26-1.14-.98-.69-1.95-.99-3.16-1.03.11.38.22.75.34,1.11.21.65.44,1.25.75,1.83.33.62.75,1.22,1.33,1.8.31.31.53.9.02,1.34-.81-.87-1.49-1.76-2.04-2.73-.15-.26-.27-.53-.4-.8-.1-.21-.2-.42-.29-.64-.12-.3-.22-.63-.32-.95-.04-.15-.11-.28-.15-.43-.16.13-.33.26-.49.39-.41.33-.83.65-1.24.98-.52.41-1.04.81-1.55,1.22-.23-.18-.45-.35-.67-.53.32-.27.64-.53.95-.8.35-.29.71-.59,1.06-.89.36-.3.73-.61,1.09-.91-.35-.62-.78-1.05-1.27-1.38-.65-.42-1.41-.65-2.3-.83-.11-.02-.23-.04-.34-.06-1.1-.2-2.21-.33-3.34-.6-.04-.01-.08-.03-.13-.04-1.19-.31-2.14-.98-3.09-1.8-.31-.26-.31-.56.06-.73.01,0,.02-.01.03-.02.09-.04.12-.04.23,0,.11.05.26.14.4.24,1.5,1.18,2.95,1.74,4.87,1.97.64.08,1.31.17,1.97.29.21.04.43.07.63.11.72.17,1.36.42,1.95.75.52.3,1.01.66,1.48,1.11.38-.42.97-.95,1.34-1.32.57-.58.93-1.19.93-1.94,0-.4-.06-.75-.17-1.06-.25-.74-.77-1.28-1.41-1.77-.21-.16-.43-.32-.65-.48-1.81-1.24-3.59-2.27-5-3.9-.98-1.14-1.79-2.22-2.76-3.34-.16-.18-.2-.42-.3-.62.42-.12.73.14.95.38.89.96,1.56,1.84,2.4,2.8,1.12,1.28,2.23,2.37,3.73,3.23.73.42,1.43.89,2.12,1.4.32.24.65.47.95.72.27.23.5.5.7.78.31.42.58.88.88,1.32,1.38-1.79,2.75-3.54,3.76-5.55.24-.48.23-.95.13-1.45-.05-.23-.11-.44-.17-.65-.26-.86-.68-1.59-1.34-2.22-.09-.08-.15-.17-.25-.25-.61-.51-1.31-.98-1.96-1.43-1.32-.91-2.34-1.86-3-3.34-.54-1.21-1.03-2.45-1.8-3.56-.08-.12-.11-.41-.13-.56.17.04.58.16.67.28.62.77,1.26,1.55,1.61,2.42.78,1.92,1.68,3.14,3.38,4.35.62.44,1.25.88,1.84,1.37.58.49,1.12,1.02,1.58,1.67.02.02.04.05.05.08.16.23.36.51.51.75.36-1.2.61-2.38.79-3.56.33-2.12.45-4.24.57-6.47-.26-.24-.51-.48-.77-.72-1.16-1.08-2.31-2.13-3.55-3.17-.35-.29-.75-.55-.56-1.11.15,0,.5-.05.61-.04.01,0,.02,0,.03,0,0,0,0,0,0,0,0,0,0,0,0,0,0,0,0,0,0,0,0,0,0,0,0-.01,0,0,0,0,0-.01,0,0,0,0,0,0,0,0,0,0,0,0,0,0,0,0,0,0,0,0,0,0,0,0,0,0,0,0,0,0,0,.01,0,.02,0,.03,0,0,0,0,0,0,0,.02,0,.02,0,.05,0,.08,0,.03,0-.04,0,0,0,0,0,0,0,0,0,0,0,0,0,.05.01.12.02.22.1.93,2.19,2.47,3.6,3.3.22.13.43.25.61.34,0-1.1-.17-2.22-.26-3.34-.07-.85-.1-1.7.03-2.56.02.02.04.04.05.06.29.29.54.61.6,1,.15.9.29,1.73.45,2.61.51-.44.74-.99,1.14-1.43.2-.23.44-.43.78-.56-.02.26.02.69-.09.9-.25.51-.53.92-.83,1.36-.09.13-.17.26-.26.4-.56.88-.64,1.75-.69,2.78-.04.82-.07,1.63-.11,2.44-.11,1.95-.29,3.87-.82,5.79.09-.02.1.08.22,0s.29-.21.44-.33c1.47-1.13,3.06-1.74,4.94-1.84.69-.04,1.26,0,2-.31.74-.31,1.55-1.01,2.31-1.47.36-.22.65-.12.83.3-1.4,1.44-2.83,2.28-4.82,2.35-2.7.09-4.31,1.4-6.11,3.24-.26.26-.42.56-.56.89-.86,1.97-1.78,3.78-3.04,5.54-.17.23-.38.56-.55.82,1.74-.29,3.26-.61,5.06-.37,2.48.32,4.55.48,6.98-.42.13-.05.54.22.66.32Z"></path><path class="cls-1" d="M59.03,9.86c.1-.04.33-.08.48-.21,1.05-.94,2.1-1.89,3.12-2.86.41-.39.41-.81.09-1.19-.36-.43-.74-.47-1.23-.1-.4.3-.76.63-1.13.97-.66.6-1.32,1.2-1.98,1.81-.34.31-.33.7-.2,1.09.11.35.41.46.85.49Z"></path><path class="cls-1" d="M49.74,5.6c1.01.96,1.99,1.95,2.97,2.93.54.19.88-.09,1.11-.52.23-.42,0-.76-.29-1.05-.89-.92-1.77-1.86-2.68-2.76-.68-.67-.94-.63-1.56.13-.15.54.07.91.45,1.27Z"></path><path class="cls-1" d="M56.22,7.22c.28.24.58.19.98-.01.07-.09.25-.24.3-.42.43-1.34,1.28-4.29,1.67-5.64.16-.54-.06-.91-.53-1.07-.53-.18-.87-.03-1.11.54-.19.46-.33.93-.48,1.41-.27.85-.96,3.3-1.22,4.16-.13.44.07.77.39,1.04Z"></path></g></g></svg>